<svg version="1.1" id="Layer_1" xmlns="http://www.w3.org/2000/svg" xmlns:xlink="http://www.w3.org/1999/xlink" x="0px" y="0px"
	 width="100%" viewBox="0 0 2000 2000" enable-background="new 0 0 2000 2000" xml:space="preserve">
<path fill="#FFFFFF" opacity="1.000000" stroke="none" 
	d="
M1181.000000,2001.000000 
	C787.333313,2001.000000 394.166656,2001.000000 1.000000,2001.000000 
	C1.000000,1334.333374 1.000000,667.666687 1.000000,1.000000 
	C667.666687,1.000000 1334.333374,1.000000 2001.000000,1.000000 
	C2001.000000,667.666687 2001.000000,1334.333374 2001.000000,2001.000000 
	C1727.833374,2001.000000 1454.666626,2001.000000 1181.000000,2001.000000 
M1272.845459,723.409180 
	C1296.019897,682.823120 1318.983643,642.114258 1342.505371,601.730530 
	C1349.019653,590.546692 1348.974121,580.809998 1342.544312,569.562500 
	C1286.824097,472.093414 1231.374023,374.469635 1176.060303,276.769226 
	C1171.218506,268.217255 1165.101196,264.692047 1155.202271,264.713470 
	C1043.043213,264.956085 930.883179,264.961914 818.724121,264.708862 
	C808.454834,264.685699 802.142273,268.335266 797.099121,277.232452 
	C741.409729,375.480621 685.564331,473.641083 629.393311,571.614319 
	C623.636047,581.656311 623.614563,589.700623 629.359131,599.762756 
	C685.021057,697.259155 740.369446,794.935303 795.509338,892.728088 
	C800.898621,902.286316 807.506348,906.340881 818.602295,906.311462 
	C929.427368,906.017395 1040.253906,905.993347 1151.078857,906.324646 
	C1163.830078,906.362732 1171.810303,901.708496 1177.975220,890.717529 
	C1209.219238,835.014587 1240.903442,779.558472 1272.845459,723.409180 
M1569.890625,1176.500000 
	C1569.890625,1168.421509 1569.890625,1160.343140 1569.890625,1152.404297 
	C1554.085693,1152.404297 1539.171143,1152.404297 1523.743652,1152.404297 
	C1523.743652,1178.631836 1523.743652,1204.513672 1523.743652,1230.218018 
	C1498.149414,1230.218018 1473.076904,1230.218018 1447.516846,1230.218018 
	C1447.516846,1204.076538 1447.516846,1178.312988 1447.516846,1152.353516 
	C1432.137573,1152.353516 1417.252441,1152.353516 1402.209229,1152.353516 
	C1402.209229,1217.741333 1402.209229,1282.830933 1402.209229,1348.011353 
	C1417.346069,1348.011353 1432.269531,1348.011353 1447.768555,1348.011353 
	C1447.768555,1321.501465 1447.768555,1295.286743 1447.768555,1269.030762 
	C1473.429321,1269.030762 1498.511230,1269.030762 1524.074707,1269.030762 
	C1524.074707,1295.511108 1524.074707,1321.739136 1524.074707,1347.885986 
	C1539.602539,1347.885986 1554.643433,1347.885986 1569.890625,1347.885986 
	C1569.890625,1290.806763 1569.890625,1234.153320 1569.890625,1176.500000 
M505.522705,1152.063599 
	C501.767365,1152.063599 498.012024,1152.063599 494.317871,1152.063599 
	C494.317871,1217.875732 494.317871,1282.933105 494.317871,1347.946533 
	C509.327942,1347.946533 524.031250,1347.946533 539.139038,1347.946533 
	C539.139038,1323.772949 539.139038,1300.025513 539.139038,1276.002197 
	C545.522888,1276.002197 551.509155,1276.232788 557.466125,1275.914551 
	C560.963806,1275.727539 562.747864,1277.095581 564.553162,1279.943237 
	C578.246887,1301.544067 592.170837,1322.999023 605.900757,1344.577148 
	C607.579163,1347.214966 609.269714,1348.512817 612.603699,1348.463745 
	C626.763367,1348.255249 640.927917,1348.384277 655.090637,1348.360718 
	C656.444031,1348.358521 657.797058,1348.153564 659.841919,1347.986206 
	C640.923340,1320.046509 622.492065,1292.826416 603.945435,1265.436035 
	C622.189209,1259.774658 635.093323,1248.823853 640.573425,1230.419312 
	C643.631287,1220.149658 644.370728,1209.685913 643.146667,1198.892700 
	C640.987122,1179.850220 631.984924,1166.177612 613.981873,1159.028442 
	C600.199097,1153.555298 585.642212,1152.242554 570.996460,1152.114136 
	C549.504089,1151.925781 528.008789,1152.064331 505.522705,1152.063599 
M976.528259,1322.998047 
	C981.660217,1330.360352 986.894531,1337.654541 991.867310,1345.122803 
	C993.557678,1347.661499 995.488831,1348.481812 998.460510,1348.441284 
	C1009.953491,1348.284058 1021.449951,1348.377441 1032.945068,1348.377441 
	C1038.064941,1348.377441 1043.184814,1348.377441 1049.134888,1348.377441 
	C1023.280518,1312.669312 997.973389,1277.716797 972.499390,1242.533936 
	C996.832520,1212.482910 1021.013306,1182.620239 1045.756592,1152.062622 
	C1028.374146,1152.062622 1012.223206,1151.969116 996.076965,1152.200195 
	C994.375305,1152.224609 992.220886,1153.788696 991.086060,1155.261963 
	C973.526245,1178.058105 955.966736,1200.857666 938.761780,1223.921021 
	C935.512878,1228.276367 932.130493,1229.292114 926.798828,1227.906982 
	C926.798828,1202.808594 926.798828,1177.591309 926.798828,1152.466309 
	C911.329224,1152.466309 896.449829,1152.466309 881.567078,1152.466309 
	C881.567078,1217.900391 881.567078,1282.929810 881.567078,1348.070068 
	C896.836731,1348.070068 911.753845,1348.070068 927.122742,1348.070068 
	C927.122742,1320.015869 927.122742,1292.265991 927.122742,1264.251709 
	C931.150879,1264.562500 934.784790,1262.864868 937.699402,1267.148315 
	C950.319763,1285.694824 963.254333,1304.027588 976.528259,1322.998047 
M732.811157,1158.245972 
	C713.868530,1216.003418 694.925171,1273.760620 675.984314,1331.518677 
	C674.208069,1336.935181 672.448669,1342.357300 670.486816,1348.373291 
	C685.442261,1348.373291 699.561584,1348.449219 713.676331,1348.230835 
	C714.822754,1348.213135 716.559570,1346.373779 716.970093,1345.053833 
	C720.453796,1333.851440 723.811951,1322.606079 726.926575,1311.296021 
	C727.753296,1308.293823 729.107178,1307.445679 732.107239,1307.463379 
	C752.925659,1307.585449 773.745361,1307.564941 794.564209,1307.482666 
	C797.285889,1307.471924 798.573486,1308.108398 799.352173,1311.057739 
	C802.302856,1322.233276 805.892822,1333.241821 808.752441,1344.438354 
	C809.639038,1347.909912 811.205688,1348.502197 814.254150,1348.425415 
	C820.745605,1348.261719 827.244019,1348.375366 833.739624,1348.375366 
	C841.339478,1348.375488 848.939270,1348.375488 856.293274,1348.375488 
	C856.574463,1347.596558 856.700073,1347.433228 856.664001,1347.322510 
	C835.805176,1283.220581 814.908081,1219.130859 794.155640,1154.994507 
	C793.226013,1152.121704 791.655457,1152.038940 789.377197,1152.044067 
	C773.055054,1152.080444 756.728882,1152.259399 740.413086,1151.935547 
	C735.937683,1151.846680 733.579895,1153.068237 732.811157,1158.245972 
M1117.499756,1348.377197 
	C1146.561279,1348.377197 1175.622803,1348.377197 1204.535889,1348.377197 
	C1204.535889,1335.449585 1204.535889,1323.370972 1204.535889,1310.782959 
	C1175.444946,1310.782959 1146.718628,1310.782959 1118.084717,1310.782959 
	C1118.084717,1295.979858 1118.084717,1281.697388 1118.084717,1266.785889 
	C1145.150391,1266.785889 1172.006714,1266.785889 1198.729248,1266.785889 
	C1198.729248,1254.885010 1198.729248,1243.617676 1198.729248,1231.924683 
	C1171.716919,1231.924683 1144.974976,1231.924683 1118.245239,1231.924683 
	C1118.245239,1217.610107 1118.245239,1203.730835 1118.245239,1189.312988 
	C1146.846436,1189.312988 1175.072510,1189.312988 1203.285889,1189.312988 
	C1203.285889,1176.667480 1203.285889,1164.570557 1203.285889,1152.419434 
	C1159.738892,1152.419434 1116.526367,1152.419434 1073.296875,1152.419434 
	C1073.296875,1217.841064 1073.296875,1282.905273 1073.296875,1348.376953 
	C1087.882690,1348.376953 1102.191284,1348.376953 1117.499756,1348.377197 
M1239.343262,1240.125732 
	C1245.205933,1244.689453 1250.527954,1250.352051 1257.055908,1253.563477 
	C1267.243774,1258.575195 1278.289429,1261.822266 1288.895996,1266.009155 
	C1298.707520,1269.882202 1308.685913,1273.477905 1318.084106,1278.203369 
	C1324.612915,1281.486084 1327.434570,1287.964844 1326.808960,1295.427124 
	C1326.134521,1303.473511 1321.905273,1309.240967 1314.331299,1311.883789 
	C1309.706543,1313.497559 1304.724854,1314.674927 1299.852173,1314.890869 
	C1278.441040,1315.840332 1258.609619,1309.815552 1239.658936,1300.340698 
	C1238.301880,1299.662231 1236.875977,1299.121460 1235.314941,1298.444092 
	C1234.228394,1310.385254 1233.262817,1321.644409 1232.143555,1332.888184 
	C1231.824585,1336.091797 1231.877930,1338.571533 1235.630127,1339.922974 
	C1266.000244,1350.861816 1297.007202,1355.838501 1328.970337,1348.839844 
	C1347.894165,1344.696289 1363.245239,1335.048584 1370.421021,1315.965698 
	C1372.664429,1309.999634 1374.180908,1303.479248 1374.525879,1297.130737 
	C1375.776611,1274.116455 1370.352661,1257.432129 1348.388794,1246.201538 
	C1338.859009,1241.328857 1328.588257,1237.865479 1318.546265,1234.045532 
	C1309.136475,1230.465942 1299.486816,1227.506104 1290.132446,1223.795532 
	C1284.813965,1221.685913 1280.291138,1218.153198 1278.076294,1212.492798 
	C1273.619995,1201.104126 1280.298584,1190.118408 1293.851074,1187.069336 
	C1306.487183,1184.226318 1319.042725,1185.565063 1331.148193,1189.688599 
	C1340.906738,1193.012573 1350.351807,1197.256836 1360.179199,1201.190186 
	C1361.104858,1189.635986 1361.905273,1177.692383 1363.118164,1165.790649 
	C1363.447510,1162.558838 1362.261475,1161.114502 1359.592163,1160.322754 
	C1349.623047,1157.365967 1339.767944,1153.857788 1329.629761,1151.672729 
	C1309.302124,1147.291382 1288.809692,1146.095337 1268.497803,1152.041016 
	C1231.479248,1162.877197 1215.671631,1209.735352 1239.343262,1240.125732 
M1674.947876,1663.409302 
	C1674.444702,1661.689087 1673.941406,1659.968872 1673.411621,1658.157959 
	C1670.219238,1658.157959 1667.259766,1658.157959 1664.181885,1658.157959 
	C1659.597778,1675.664429 1655.046753,1693.045044 1650.495728,1710.425537 
	C1650.123291,1710.390381 1649.750732,1710.355225 1649.378296,1710.320190 
	C1644.683472,1692.922485 1639.988525,1675.524780 1635.311646,1658.193604 
	C1632.242676,1658.193604 1629.618408,1658.193604 1626.473145,1658.193604 
	C1632.359375,1678.625854 1638.034302,1698.765137 1644.207642,1718.750610 
	C1644.614136,1720.066650 1648.807007,1720.605713 1651.276367,1720.725098 
	C1652.495850,1720.784180 1654.588623,1719.293701 1654.942383,1718.104736 
	C1657.500977,1709.503052 1659.703369,1700.795776 1662.043823,1692.128662 
	C1664.037231,1684.746704 1666.064697,1677.373657 1668.077026,1669.996704 
	C1668.435303,1670.019409 1668.793457,1670.042236 1669.151611,1670.064941 
	C1673.801758,1686.979614 1678.451782,1703.894409 1683.125488,1720.895020 
	C1684.864502,1720.895020 1686.229492,1720.689331 1687.509644,1720.932007 
	C1692.006104,1721.784424 1694.109253,1719.894165 1694.990967,1715.500244 
	C1695.870972,1711.114380 1697.407227,1706.860474 1698.651245,1702.547485 
	C1702.884521,1687.870972 1707.115967,1673.193848 1711.361450,1658.470825 
	C1702.853760,1657.277344 1702.868896,1657.281372 1700.884277,1664.695557 
	C1697.444946,1677.543335 1693.990356,1690.387085 1690.528198,1703.228760 
	C1689.876709,1705.645264 1689.160156,1708.044434 1688.473511,1710.451538 
	C1688.118042,1710.403442 1687.762573,1710.355347 1687.407104,1710.307373 
	C1683.301880,1694.944702 1679.196655,1679.581909 1674.947876,1663.409302 
M1327.566040,1702.034790 
	C1326.841064,1703.619873 1326.116089,1705.205078 1324.993164,1707.660034 
	C1323.794922,1705.094116 1322.916992,1703.404785 1322.200317,1701.649536 
	C1317.052246,1689.040405 1311.592041,1676.542480 1306.967407,1663.743164 
	C1304.879639,1657.964600 1301.705322,1656.904053 1296.214600,1658.561646 
	C1293.669067,1679.122681 1291.106445,1699.821777 1288.537109,1720.574463 
	C1291.476685,1720.574463 1293.704468,1720.574463 1296.133301,1720.574463 
	C1298.097290,1704.612793 1300.026001,1688.937378 1301.954712,1673.261963 
	C1303.617310,1674.869751 1304.351685,1676.491455 1305.021606,1678.139526 
	C1310.336914,1691.217163 1315.572998,1704.328125 1321.040771,1717.341675 
	C1321.654663,1718.803223 1323.377563,1720.252686 1324.905762,1720.778076 
	C1327.736084,1721.750977 1328.359985,1719.286743 1329.161499,1717.227539 
	C1333.136841,1707.012817 1337.166626,1696.818970 1341.207886,1686.630005 
	C1342.944946,1682.250732 1344.755737,1677.900635 1346.533081,1673.537354 
	C1346.898804,1673.583618 1347.264526,1673.629883 1347.630249,1673.676270 
	C1349.580933,1689.359619 1351.531616,1705.043091 1353.461426,1720.558228 
	C1356.307007,1720.558228 1358.551758,1720.558228 1361.095703,1720.558228 
	C1358.512939,1699.588623 1355.975708,1678.988281 1353.450073,1658.482422 
	C1345.555298,1657.363281 1345.576660,1657.371826 1342.961670,1663.879517 
	C1337.945068,1676.362549 1332.901611,1688.834595 1327.566040,1702.034790 
M532.902588,1679.547974 
	C528.865479,1673.847290 524.558594,1668.313965 520.882446,1662.389404 
	C518.261414,1658.165161 515.135742,1656.964355 510.681396,1658.465820 
	C510.681396,1679.272461 510.681396,1699.961914 510.681396,1720.528564 
	C513.329407,1720.528564 515.561707,1720.528564 518.324646,1720.528564 
	C518.324646,1704.227173 518.324646,1688.286621 518.324646,1671.222778 
	C529.510376,1687.039062 540.117737,1701.737793 550.342896,1716.697632 
	C553.042664,1720.647339 555.915100,1721.772705 560.170898,1720.442871 
	C560.170898,1699.571899 560.170898,1678.889160 560.170898,1658.165771 
	C557.653931,1658.165771 555.539246,1658.165771 552.858887,1658.165771 
	C552.858887,1674.314331 552.858887,1690.293823 552.858887,1707.652954 
	C545.768799,1697.692993 539.526733,1688.924194 532.902588,1679.547974 
M1584.194580,1721.271851 
	C1592.519531,1722.549316 1600.499023,1721.674805 1607.701904,1717.013062 
	C1619.555054,1709.341553 1624.495972,1693.229858 1619.863892,1677.835571 
	C1615.793945,1664.309204 1604.455200,1656.651245 1588.908569,1656.928589 
	C1571.411011,1657.240723 1560.066162,1668.339355 1558.423950,1686.752075 
	C1556.871216,1704.158813 1566.865479,1717.953979 1584.194580,1721.271851 
M706.591858,1692.133667 
	C707.681519,1669.744995 694.561218,1656.170532 672.613647,1656.979370 
	C658.294556,1657.507080 647.406738,1666.872192 644.317993,1681.317627 
	C641.002319,1696.824585 647.250854,1712.020508 659.644226,1718.193237 
	C662.143921,1719.438110 664.869934,1720.454834 667.605652,1720.963867 
	C688.810608,1724.909180 703.423279,1714.351074 706.591858,1692.133667 
M1279.431396,1684.069214 
	C1276.834595,1667.444336 1266.235596,1657.471069 1250.615479,1656.954590 
	C1232.837769,1656.366821 1220.834961,1665.079590 1217.539062,1681.447998 
	C1216.698853,1685.621338 1216.704468,1690.087402 1217.061279,1694.357300 
	C1218.324463,1709.474365 1228.960449,1719.801147 1244.751221,1721.662109 
	C1259.756470,1723.430420 1273.247070,1715.769287 1277.525513,1702.117798 
	C1279.220703,1696.708862 1278.963501,1690.688110 1279.431396,1684.069214 
M1395.944580,1657.119751 
	C1379.510010,1659.191162 1369.565186,1673.140259 1369.765381,1689.603516 
	C1369.989868,1708.077759 1381.093994,1720.468994 1399.015625,1721.759888 
	C1417.119995,1723.063843 1430.202881,1712.155884 1432.666260,1693.703369 
	C1434.827515,1677.513306 1426.373169,1662.513062 1412.142944,1658.484131 
	C1407.297119,1657.112183 1401.961670,1657.470093 1395.944580,1657.119751 
M756.638306,1717.242432 
	C772.644653,1709.731201 773.976135,1687.928345 769.284058,1675.244629 
	C766.236389,1667.006226 760.514343,1660.864746 752.000427,1659.556152 
	C741.311401,1657.913086 730.348145,1658.053711 719.583557,1657.429321 
	C719.583557,1679.349976 719.583557,1700.024170 719.583557,1720.098389 
	C729.140991,1720.098389 738.273315,1720.293335 747.388550,1719.984497 
	C750.275818,1719.886475 753.117554,1718.443726 756.638306,1717.242432 
M1102.480591,1657.989136 
	C1096.723877,1657.989136 1090.967285,1657.989136 1085.250488,1657.989136 
	C1085.250488,1679.242310 1085.250488,1699.824219 1085.250488,1720.192505 
	C1094.420898,1720.192505 1103.416626,1720.898682 1112.257568,1720.029297 
	C1126.051880,1718.673096 1134.292847,1710.517944 1136.633057,1696.960815 
	C1137.332397,1692.909790 1137.270874,1688.654297 1137.020142,1684.525269 
	C1136.084473,1669.119507 1125.838867,1659.003540 1110.460815,1658.073486 
	C1108.137207,1657.932861 1105.800293,1658.011841 1102.480591,1657.989136 
M1525.805786,1698.349365 
	C1530.418457,1704.242188 1535.476196,1709.849243 1539.503296,1716.118164 
	C1542.736206,1721.150757 1546.724365,1721.509277 1552.455444,1720.480591 
	C1545.292969,1711.453979 1538.452881,1702.833618 1531.323730,1693.848877 
	C1533.148193,1693.266602 1534.364868,1692.914185 1535.557129,1692.492188 
	C1543.936157,1689.526245 1547.749268,1682.958984 1547.072632,1672.689575 
	C1546.547363,1664.720215 1542.480591,1659.697144 1533.475342,1658.837524 
	C1523.990723,1657.932129 1514.352661,1658.634644 1504.712646,1658.634644 
	C1504.712646,1679.237061 1504.712646,1699.930054 1504.712646,1720.655273 
	C1507.350220,1720.655273 1509.615234,1720.655273 1512.403931,1720.655273 
	C1512.403931,1712.177368 1512.403931,1703.935669 1512.403931,1695.121704 
	C1517.082520,1696.161743 1521.835205,1692.956787 1525.805786,1698.349365 
M1473.505005,1707.028442 
	C1475.878418,1710.030273 1478.686768,1712.789673 1480.525635,1716.089355 
	C1483.449951,1721.336792 1487.708008,1721.526245 1493.478271,1720.465942 
	C1486.291016,1711.450439 1479.429443,1702.843384 1472.267822,1693.859985 
	C1474.155640,1693.258423 1475.375488,1692.906738 1476.569702,1692.483398 
	C1484.933838,1689.517578 1488.729004,1682.957275 1488.062744,1672.648682 
	C1487.550659,1664.728882 1483.419434,1659.675903 1474.411011,1658.824951 
	C1464.927368,1657.928955 1455.293579,1658.624146 1445.729370,1658.624146 
	C1445.729370,1679.278442 1445.729370,1699.963989 1445.729370,1720.622437 
	C1448.390381,1720.622437 1450.644165,1720.622437 1453.430908,1720.622437 
	C1453.430908,1712.113403 1453.430908,1703.874146 1453.430908,1695.779907 
	C1460.479736,1694.213379 1466.054321,1694.973999 1469.424805,1701.727905 
	C1470.298828,1703.479492 1471.822754,1704.906738 1473.505005,1707.028442 
M495.715118,1715.817261 
	C489.962494,1708.595093 484.209900,1701.372925 478.215393,1693.847168 
	C480.670288,1693.035400 482.420929,1692.594116 484.059174,1691.890991 
	C491.159058,1688.843384 494.552551,1682.341797 494.029449,1672.975708 
	C493.638000,1665.966431 490.243652,1660.438599 483.567383,1659.538208 
	C472.999725,1658.113281 462.245941,1658.068359 451.553406,1657.438599 
	C451.553406,1679.322144 451.553406,1699.900757 451.553406,1720.671753 
	C454.104889,1720.671753 456.354645,1720.671753 459.082520,1720.671753 
	C459.082520,1712.198975 459.082520,1703.935791 459.082520,1695.804443 
	C466.266937,1694.107788 471.612427,1695.117554 475.568024,1701.782227 
	C478.768829,1707.175293 483.623749,1711.566650 487.042786,1716.856079 
	C490.251282,1721.819946 494.259491,1721.206421 499.230103,1720.387695 
	C497.968231,1718.752441 497.059509,1717.574829 495.715118,1715.817261 
M358.499573,1657.985352 
	C351.888763,1657.985352 345.277924,1657.985352 338.543518,1657.985352 
	C338.543518,1679.172363 338.543518,1699.862061 338.543518,1720.581299 
	C351.610413,1720.581299 364.325867,1720.581299 377.041595,1720.581299 
	C377.041595,1718.218750 377.041595,1716.177002 377.041595,1713.746216 
	C366.572510,1713.746216 356.486877,1713.746216 346.328552,1713.746216 
	C346.328552,1706.425293 346.328552,1699.504028 346.328552,1692.097656 
	C356.151367,1692.097656 365.735077,1692.097656 375.444702,1692.097656 
	C375.444702,1689.819824 375.444702,1688.032715 375.444702,1685.731934 
	C365.683380,1685.731934 356.101715,1685.731934 346.442505,1685.731934 
	C346.442505,1678.497437 346.442505,1671.782104 346.442505,1664.644409 
	C356.865875,1664.644409 366.929047,1664.644409 377.072083,1664.644409 
	C377.072083,1662.264771 377.072083,1660.318115 377.072083,1657.985352 
	C371.074219,1657.985352 365.286682,1657.985352 358.499573,1657.985352 
M397.897369,1685.256104 
	C393.657715,1696.988403 389.418060,1708.720703 385.196411,1720.403198 
	C391.138184,1722.009155 394.396027,1720.424072 395.321747,1714.660034 
	C395.709686,1712.244507 396.717346,1709.841553 397.889893,1707.674438 
	C398.513641,1706.521484 400.072693,1705.160522 401.241058,1705.130737 
	C409.716766,1704.914917 418.200470,1705.014771 426.944580,1705.014771 
	C428.119232,1708.411987 429.255524,1711.688965 430.385406,1714.968018 
	C432.739380,1721.799805 432.806458,1721.837158 440.494873,1720.178467 
	C433.332977,1700.143799 426.206421,1680.139771 419.018921,1660.157593 
	C417.503296,1655.943970 413.846710,1658.418213 411.234406,1658.166992 
	C409.853821,1658.034424 407.467957,1659.423706 406.951416,1660.698975 
	C403.775116,1668.541626 401.002777,1676.547729 397.897369,1685.256104 
M815.972534,1705.016235 
	C816.940002,1705.915771 818.279602,1706.641846 818.796570,1707.751343 
	C819.840332,1709.990967 820.423096,1712.443604 821.221069,1714.799927 
	C823.570312,1721.737305 823.575073,1721.735718 830.956909,1720.296265 
	C830.978210,1719.968628 831.106445,1719.603027 831.005493,1719.318848 
	C824.016968,1699.622559 817.026978,1679.926758 809.949829,1660.262207 
	C809.625793,1659.361816 808.620117,1658.308594 807.733459,1658.072998 
	C801.586182,1656.438599 798.557373,1658.133545 796.350830,1664.245728 
	C789.598206,1682.950684 782.861450,1701.661133 776.005920,1720.681885 
	C778.835754,1720.681885 781.274536,1720.681885 784.002014,1720.681885 
	C785.376099,1716.812866 786.927979,1712.965210 788.088745,1709.002930 
	C788.952271,1706.055420 790.286377,1704.776123 793.618347,1704.919189 
	C800.756958,1705.225708 807.917969,1705.013306 815.972534,1705.016235 
M1068.097778,1703.257080 
	C1062.694214,1688.143066 1057.290771,1673.029175 1051.982300,1658.181152 
	C1048.021851,1658.181152 1044.715698,1658.181152 1041.322021,1658.181152 
	C1033.797119,1679.016968 1026.324219,1699.708862 1018.881348,1720.317505 
	C1024.745972,1722.230713 1027.886841,1720.483154 1028.971436,1714.847656 
	C1029.468506,1712.264648 1030.458008,1709.717529 1031.619629,1707.348145 
	C1032.124268,1706.318726 1033.612183,1705.138672 1034.676147,1705.116577 
	C1043.315796,1704.936890 1051.960815,1705.015503 1060.577637,1705.015503 
	C1062.514404,1710.476562 1064.337280,1715.616333 1066.132812,1720.678955 
	C1068.882812,1720.678955 1071.331787,1720.678955 1074.315430,1720.678955 
	C1072.242554,1714.883179 1070.296143,1709.440918 1068.097778,1703.257080 
M993.507568,1692.195190 
	C998.619385,1692.195190 1003.731140,1692.195190 1008.841064,1692.195190 
	C1008.841064,1689.757690 1008.841064,1687.872925 1008.841064,1685.568359 
	C999.104187,1685.568359 989.690369,1685.568359 980.272400,1685.568359 
	C980.272400,1678.430420 980.272400,1671.724609 980.272400,1664.576416 
	C990.728149,1664.576416 1000.790222,1664.576416 1010.754150,1664.576416 
	C1010.754150,1662.188477 1010.754150,1660.259277 1010.754150,1658.256348 
	C997.772400,1658.256348 985.048462,1658.256348 972.327820,1658.256348 
	C972.327820,1679.220947 972.327820,1699.916504 972.327820,1720.553589 
	C985.397339,1720.553589 998.123474,1720.553589 1010.839844,1720.553589 
	C1010.839844,1718.272583 1010.839844,1716.329956 1010.839844,1713.807129 
	C1000.433411,1713.807129 990.224487,1713.807129 980.240723,1713.807129 
	C980.240723,1706.311890 980.240723,1699.405518 980.240723,1692.195190 
	C984.572754,1692.195190 988.542969,1692.195190 993.507568,1692.195190 
M857.354370,1720.877930 
	C857.945984,1719.583008 858.991638,1718.307373 859.047791,1716.989624 
	C859.253296,1712.166626 859.357849,1707.315674 859.063293,1702.502075 
	C858.786194,1697.972900 860.031006,1694.172241 862.396851,1690.326538 
	C868.819031,1679.887451 874.902283,1669.239746 881.173279,1658.584106 
	C875.213013,1656.730591 871.695190,1658.357300 869.015320,1663.798706 
	C865.022522,1671.906006 860.160217,1679.585327 855.210144,1688.247559 
	C850.276733,1679.606689 845.392395,1672.069580 841.576599,1664.025757 
	C838.839966,1658.256836 835.164124,1656.802246 829.121155,1658.518799 
	C835.680603,1669.639526 842.295349,1680.565186 848.559448,1691.688354 
	C850.020996,1694.283691 850.837280,1697.520020 850.999756,1700.512939 
	C851.358215,1707.116455 851.111145,1713.752930 851.111145,1720.892700 
	C853.207397,1720.892700 854.822327,1720.892700 857.354370,1720.877930 
M929.613464,1674.502441 
	C929.613464,1669.072876 929.613464,1663.643311 929.613464,1658.132568 
	C926.618958,1658.132568 924.314331,1658.132568 921.774170,1658.132568 
	C921.774170,1679.027344 921.774170,1699.764893 921.774170,1720.521484 
	C934.935852,1720.521484 947.809814,1720.521484 960.536133,1720.521484 
	C960.536133,1718.066284 960.536133,1716.003540 960.536133,1713.427979 
	C950.119202,1713.427979 940.059021,1713.427979 929.613342,1713.427979 
	C929.613342,1700.431152 929.613342,1687.966431 929.613464,1674.502441 
M1191.071777,1665.789551 
	C1198.057983,1665.400513 1205.044067,1665.011475 1211.969116,1664.625854 
	C1211.969116,1662.304321 1211.969116,1660.239258 1211.969116,1658.371826 
	C1194.917236,1658.371826 1178.199707,1658.371826 1161.516724,1658.371826 
	C1161.516724,1660.685547 1161.516724,1662.620605 1161.516724,1665.200928 
	C1168.770142,1665.200928 1175.804810,1665.200928 1183.178101,1665.200928 
	C1183.178101,1684.089600 1183.178101,1702.329468 1183.178101,1720.498779 
	C1185.948608,1720.498779 1188.326416,1720.498779 1190.949219,1720.498779 
	C1190.949219,1702.326172 1190.949219,1684.535034 1191.071777,1665.789551 
M608.127319,1665.069092 
	C608.701477,1666.551025 609.762756,1668.029175 609.774658,1669.515625 
	C609.897156,1684.818970 609.849976,1700.123779 609.850037,1715.428101 
	C609.850037,1717.177979 609.850037,1718.927979 609.850037,1720.612549 
	C612.872559,1720.612549 615.130981,1720.612549 617.966309,1720.612549 
	C617.966309,1701.997681 617.966309,1683.650513 617.966309,1664.929932 
	C625.299133,1664.929932 632.054443,1664.929932 638.909424,1664.929932 
	C638.909424,1662.479004 638.909424,1660.419067 638.909424,1658.274658 
	C621.936035,1658.274658 605.224731,1658.274658 588.468506,1658.274658 
	C588.468506,1660.617554 588.468506,1662.669800 588.468506,1665.048096 
	C594.913818,1665.048096 601.045288,1665.048096 608.127319,1665.069092 
M296.556122,1720.890381 
	C306.653381,1720.890381 316.750641,1720.890381 326.786072,1720.890381 
	C326.786072,1718.169434 326.786072,1716.079834 326.786072,1713.556885 
	C316.429626,1713.556885 306.355408,1713.556885 295.860962,1713.556885 
	C295.860962,1694.881104 295.860962,1676.638672 295.860962,1658.265625 
	C293.030457,1658.265625 290.639343,1658.265625 288.288635,1658.265625 
	C288.288635,1679.237915 288.288635,1699.931641 288.288635,1720.890381 
	C290.958221,1720.890381 293.267822,1720.890381 296.556122,1720.890381 
M891.935974,1716.549683 
	C891.151672,1710.305298 890.079834,1709.497314 884.513550,1710.464111 
	C883.277283,1718.535522 882.065857,1726.444580 880.873108,1734.231689 
	C885.502380,1734.336914 889.929749,1728.157349 891.935974,1716.549683 
z"/>
<path fill="#363636" opacity="1.000000" stroke="none" 
	d="
M1272.639404,723.712524 
	C1240.903442,779.558472 1209.219238,835.014587 1177.975220,890.717529 
	C1171.810303,901.708496 1163.830078,906.362732 1151.078857,906.324646 
	C1040.253906,905.993347 929.427368,906.017395 818.602295,906.311462 
	C807.506348,906.340881 800.898621,902.286316 795.509338,892.728088 
	C740.369446,794.935303 685.021057,697.259155 629.359131,599.762756 
	C623.614563,589.700623 623.636047,581.656311 629.393311,571.614319 
	C685.564331,473.641083 741.409729,375.480621 797.099121,277.232452 
	C802.142273,268.335266 808.454834,264.685699 818.724121,264.708862 
	C930.883179,264.961914 1043.043213,264.956085 1155.202271,264.713470 
	C1165.101196,264.692047 1171.218506,268.217255 1176.060303,276.769226 
	C1231.374023,374.469635 1286.824097,472.093414 1342.544312,569.562500 
	C1348.974121,580.809998 1349.019653,590.546692 1342.505371,601.730530 
	C1318.983643,642.114258 1296.019897,682.823120 1272.639404,723.712524 
M1110.120972,660.670715 
	C1141.771240,642.674927 1173.421387,624.679138 1205.676636,606.339355 
	C1092.996704,537.167664 980.752930,468.263824 867.985168,399.038239 
	C867.985168,532.588989 867.985168,664.993652 867.985168,798.114929 
	C948.780945,752.240112 1029.123291,706.622681 1110.120972,660.670715 
M1157.319824,555.206421 
	C1174.691406,565.876038 1192.063110,576.545593 1210.165894,587.664307 
	C1209.194824,580.458862 1208.574219,574.172729 1207.474609,567.971558 
	C1200.708862,529.814087 1193.839722,491.674988 1186.995483,453.531464 
	C1178.154175,404.257111 1169.350952,354.975830 1160.423096,305.717163 
	C1158.304077,294.025726 1157.864868,293.936890 1146.483032,297.638550 
	C1068.924683,322.862549 991.360413,348.068329 913.807251,373.308411 
	C902.708435,376.920532 891.659424,380.685852 879.558105,384.723724 
	C972.545044,441.820496 1064.607300,498.349518 1157.319824,555.206421 
M792.217468,456.710815 
	C746.127258,501.010956 700.037048,545.311096 653.710144,589.838745 
	C718.126526,656.636719 782.235962,723.116333 846.885010,790.155640 
	C846.885010,661.228821 846.885010,533.225830 846.885010,404.175262 
	C828.390076,421.946503 810.555664,439.083069 792.217468,456.710815 
M1119.681763,676.117676 
	C1041.129028,720.880798 962.576233,765.643982 883.216003,810.867188 
	C886.640991,812.092468 889.198914,813.262695 891.881897,813.930420 
	C974.144653,834.402588 1056.417725,854.833557 1138.694946,875.247009 
	C1150.667725,878.217529 1151.174438,877.819946 1154.018433,865.628418 
	C1169.919678,797.465759 1185.864380,729.313171 1201.730835,661.142395 
	C1204.427246,649.557373 1206.814453,637.900452 1209.650146,624.873047 
	C1178.934082,642.399658 1149.644409,659.112488 1119.681763,676.117676 
M968.110718,336.736694 
	C1020.385559,319.665710 1072.660400,302.594696 1124.935303,285.523712 
	C1124.794312,285.054230 1124.653320,284.584778 1124.512329,284.115295 
	C1024.028442,284.115295 923.544617,284.115295 822.352112,284.115295 
	C824.303528,288.765808 825.911133,292.920898 827.765808,296.962616 
	C837.332703,317.810516 846.990845,338.616516 856.558899,359.463928 
	C861.157227,369.483063 863.590759,370.687592 873.940613,367.330261 
	C905.081909,357.228607 936.207947,347.079742 968.110718,336.736694 
M1197.879639,409.652527 
	C1198.224731,411.618500 1198.568726,413.584625 1198.915039,415.550385 
	C1208.985229,472.714630 1219.042236,529.881226 1229.141602,587.040344 
	C1230.502563,594.743530 1232.824585,596.109375 1240.569458,594.420837 
	C1255.350830,591.198303 1270.170410,588.147339 1284.931396,584.835083 
	C1297.794556,581.948792 1310.599121,578.800964 1324.019531,575.629272 
	C1277.970703,494.269562 1232.325317,413.622620 1186.679932,332.975677 
	C1185.992676,333.161774 1185.305542,333.347839 1184.618408,333.533936 
	C1188.331665,358.724823 1193.357056,383.713562 1197.879639,409.652527 
M820.672974,323.879669 
	C816.289734,314.859222 811.906494,305.838776 807.080994,295.908173 
	C757.609131,383.061859 708.934204,468.811676 660.259338,554.561462 
	C660.741638,554.942505 661.223938,555.323486 661.706238,555.704529 
	C663.354065,554.481934 665.154663,553.419434 666.627686,552.013733 
	C724.252747,497.020416 781.851562,441.999542 839.441772,386.969727 
	C845.724731,380.966064 846.099609,378.808502 842.358765,370.717377 
	C835.244263,355.329437 828.091858,339.959015 820.672974,323.879669 
M1256.208374,715.699341 
	C1279.138062,675.280212 1302.067627,634.861023 1325.284912,593.935120 
	C1323.730103,594.054749 1322.898071,594.021301 1322.111206,594.193359 
	C1295.482788,600.014709 1268.916260,606.141113 1242.199463,611.521973 
	C1234.024170,613.168457 1230.216309,617.415894 1228.596558,625.077271 
	C1226.466187,635.154297 1223.871582,645.132629 1221.510010,655.161316 
	C1206.463745,719.056274 1191.417725,782.951294 1176.418579,846.857422 
	C1175.790771,849.532410 1175.628662,852.316711 1175.249634,855.050049 
	C1175.836670,855.187866 1176.423584,855.325684 1177.010620,855.463501 
	C1203.309692,809.098694 1229.608643,762.733887 1256.208374,715.699341 
M944.597473,844.910583 
	C920.260681,838.787231 895.936646,832.612488 871.579285,826.571899 
	C864.321411,824.772095 860.400940,826.445435 856.774841,832.489807 
	C846.510010,849.599915 836.287231,866.735229 826.071960,883.875000 
	C825.380615,885.034973 824.888062,886.313416 824.338562,887.462463 
	C918.782288,887.462463 1012.721680,887.462463 1106.661011,887.462463 
	C1106.766235,886.917297 1106.871460,886.372131 1106.976562,885.827026 
	C1053.122192,872.233337 999.267822,858.639709 944.597473,844.910583 
M694.130066,676.349609 
	C732.081421,743.267944 770.032776,810.186279 808.235229,877.547302 
	C809.678894,875.193542 810.800476,873.392883 811.895020,871.575928 
	C819.959229,858.188965 827.857361,844.698547 836.121277,831.436096 
	C845.473083,816.427612 845.376343,814.523987 833.164368,801.943237 
	C802.889526,770.753967 772.638000,739.541992 742.405334,708.311890 
	C723.061096,688.329407 703.784973,668.281067 684.428711,648.310303 
	C681.920715,645.722656 679.115417,643.423157 676.447815,640.990234 
	C675.934875,641.435120 675.421936,641.879944 674.908997,642.324768 
	C681.212158,653.444885 687.515320,664.565002 694.130066,676.349609 
z"/>
<path fill="#1E4672" opacity="1.000000" stroke="none" 
	d="
M1569.890625,1177.000000 
	C1569.890625,1234.153320 1569.890625,1290.806763 1569.890625,1347.885986 
	C1554.643433,1347.885986 1539.602539,1347.885986 1524.074707,1347.885986 
	C1524.074707,1321.739136 1524.074707,1295.511108 1524.074707,1269.030762 
	C1498.511230,1269.030762 1473.429321,1269.030762 1447.768555,1269.030762 
	C1447.768555,1295.286743 1447.768555,1321.501465 1447.768555,1348.011353 
	C1432.269531,1348.011353 1417.346069,1348.011353 1402.209229,1348.011353 
	C1402.209229,1282.830933 1402.209229,1217.741333 1402.209229,1152.353516 
	C1417.252441,1152.353516 1432.137573,1152.353516 1447.516846,1152.353516 
	C1447.516846,1178.312988 1447.516846,1204.076538 1447.516846,1230.218018 
	C1473.076904,1230.218018 1498.149414,1230.218018 1523.743652,1230.218018 
	C1523.743652,1204.513672 1523.743652,1178.631836 1523.743652,1152.404297 
	C1539.171143,1152.404297 1554.085693,1152.404297 1569.890625,1152.404297 
	C1569.890625,1160.343140 1569.890625,1168.421509 1569.890625,1177.000000 
z"/>
<path fill="#1D4671" opacity="1.000000" stroke="none" 
	d="
M506.018738,1152.063599 
	C528.008789,1152.064331 549.504089,1151.925781 570.996460,1152.114136 
	C585.642212,1152.242554 600.199097,1153.555298 613.981873,1159.028442 
	C631.984924,1166.177612 640.987122,1179.850220 643.146667,1198.892700 
	C644.370728,1209.685913 643.631287,1220.149658 640.573425,1230.419312 
	C635.093323,1248.823853 622.189209,1259.774658 603.945435,1265.436035 
	C622.492065,1292.826416 640.923340,1320.046509 659.841919,1347.986206 
	C657.797058,1348.153564 656.444031,1348.358521 655.090637,1348.360718 
	C640.927917,1348.384277 626.763367,1348.255249 612.603699,1348.463745 
	C609.269714,1348.512817 607.579163,1347.214966 605.900757,1344.577148 
	C592.170837,1322.999023 578.246887,1301.544067 564.553162,1279.943237 
	C562.747864,1277.095581 560.963806,1275.727539 557.466125,1275.914551 
	C551.509155,1276.232788 545.522888,1276.002197 539.139038,1276.002197 
	C539.139038,1300.025513 539.139038,1323.772949 539.139038,1347.946533 
	C524.031250,1347.946533 509.327942,1347.946533 494.317871,1347.946533 
	C494.317871,1282.933105 494.317871,1217.875732 494.317871,1152.063599 
	C498.012024,1152.063599 501.767365,1152.063599 506.018738,1152.063599 
M582.593933,1240.327148 
	C593.862427,1235.965210 597.108521,1225.220337 596.410645,1211.141602 
	C595.882324,1200.483765 591.533569,1191.529907 580.579407,1189.876831 
	C566.960205,1187.821289 552.994446,1188.061890 539.201294,1187.312256 
	C539.201294,1206.763550 539.201294,1224.843140 539.201294,1243.001343 
	C550.234619,1243.001343 561.013977,1243.177856 571.781494,1242.897949 
	C575.182983,1242.809570 578.552734,1241.501465 582.593933,1240.327148 
z"/>
<path fill="#1E4672" opacity="1.000000" stroke="none" 
	d="
M976.301392,1322.718018 
	C963.254333,1304.027588 950.319763,1285.694824 937.699402,1267.148315 
	C934.784790,1262.864868 931.150879,1264.562500 927.122742,1264.251709 
	C927.122742,1292.265991 927.122742,1320.015869 927.122742,1348.070068 
	C911.753845,1348.070068 896.836731,1348.070068 881.567078,1348.070068 
	C881.567078,1282.929810 881.567078,1217.900391 881.567078,1152.466309 
	C896.449829,1152.466309 911.329224,1152.466309 926.798828,1152.466309 
	C926.798828,1177.591309 926.798828,1202.808594 926.798828,1227.906982 
	C932.130493,1229.292114 935.512878,1228.276367 938.761780,1223.921021 
	C955.966736,1200.857666 973.526245,1178.058105 991.086060,1155.261963 
	C992.220886,1153.788696 994.375305,1152.224609 996.076965,1152.200195 
	C1012.223206,1151.969116 1028.374146,1152.062622 1045.756592,1152.062622 
	C1021.013306,1182.620239 996.832520,1212.482910 972.499390,1242.533936 
	C997.973389,1277.716797 1023.280518,1312.669312 1049.134888,1348.377441 
	C1043.184814,1348.377441 1038.064941,1348.377441 1032.945068,1348.377441 
	C1021.449951,1348.377441 1009.953491,1348.284058 998.460510,1348.441284 
	C995.488831,1348.481812 993.557678,1347.661499 991.867310,1345.122803 
	C986.894531,1337.654541 981.660217,1330.360352 976.301392,1322.718018 
z"/>
<path fill="#1D4671" opacity="1.000000" stroke="none" 
	d="
M732.903564,1157.853271 
	C733.579895,1153.068237 735.937683,1151.846680 740.413086,1151.935547 
	C756.728882,1152.259399 773.055054,1152.080444 789.377197,1152.044067 
	C791.655457,1152.038940 793.226013,1152.121704 794.155640,1154.994507 
	C814.908081,1219.130859 835.805176,1283.220581 856.664001,1347.322510 
	C856.700073,1347.433228 856.574463,1347.596558 856.293274,1348.375488 
	C848.939270,1348.375488 841.339478,1348.375488 833.739624,1348.375366 
	C827.244019,1348.375366 820.745605,1348.261719 814.254150,1348.425415 
	C811.205688,1348.502197 809.639038,1347.909912 808.752441,1344.438354 
	C805.892822,1333.241821 802.302856,1322.233276 799.352173,1311.057739 
	C798.573486,1308.108398 797.285889,1307.471924 794.564209,1307.482666 
	C773.745361,1307.564941 752.925659,1307.585449 732.107239,1307.463379 
	C729.107178,1307.445679 727.753296,1308.293823 726.926575,1311.296021 
	C723.811951,1322.606079 720.453796,1333.851440 716.970093,1345.053833 
	C716.559570,1346.373779 714.822754,1348.213135 713.676331,1348.230835 
	C699.561584,1348.449219 685.442261,1348.373291 670.486816,1348.373291 
	C672.448669,1342.357300 674.208069,1336.935181 675.984314,1331.518677 
	C694.925171,1273.760620 713.868530,1216.003418 732.903564,1157.853271 
M786.426819,1266.117798 
	C779.609680,1242.125977 772.813843,1218.128174 765.911926,1194.160767 
	C765.569519,1192.971558 764.304565,1192.047852 763.469238,1191.000732 
	C762.657776,1192.077637 761.471069,1193.038574 761.096130,1194.250488 
	C758.752380,1201.825928 756.580200,1209.454712 754.369202,1217.070923 
	C748.984314,1235.620850 743.609375,1254.173706 738.183716,1272.885986 
	C754.952087,1272.885986 771.395874,1272.885986 788.179688,1272.885986 
	C787.673096,1270.687256 787.232971,1268.777100 786.426819,1266.117798 
z"/>
<path fill="#1E4672" opacity="1.000000" stroke="none" 
	d="
M1116.999756,1348.377075 
	C1102.191284,1348.376953 1087.882690,1348.376953 1073.296875,1348.376953 
	C1073.296875,1282.905273 1073.296875,1217.841064 1073.296875,1152.419434 
	C1116.526367,1152.419434 1159.738892,1152.419434 1203.285889,1152.419434 
	C1203.285889,1164.570557 1203.285889,1176.667480 1203.285889,1189.312988 
	C1175.072510,1189.312988 1146.846436,1189.312988 1118.245239,1189.312988 
	C1118.245239,1203.730835 1118.245239,1217.610107 1118.245239,1231.924683 
	C1144.974976,1231.924683 1171.716919,1231.924683 1198.729248,1231.924683 
	C1198.729248,1243.617676 1198.729248,1254.885010 1198.729248,1266.785889 
	C1172.006714,1266.785889 1145.150391,1266.785889 1118.084717,1266.785889 
	C1118.084717,1281.697388 1118.084717,1295.979858 1118.084717,1310.782959 
	C1146.718628,1310.782959 1175.444946,1310.782959 1204.535889,1310.782959 
	C1204.535889,1323.370972 1204.535889,1335.449585 1204.535889,1348.377197 
	C1175.622803,1348.377197 1146.561279,1348.377197 1116.999756,1348.377075 
z"/>
<path fill="#1D4672" opacity="1.000000" stroke="none" 
	d="
M1239.123657,1239.840576 
	C1215.671631,1209.735352 1231.479248,1162.877197 1268.497803,1152.041016 
	C1288.809692,1146.095337 1309.302124,1147.291382 1329.629761,1151.672729 
	C1339.767944,1153.857788 1349.623047,1157.365967 1359.592163,1160.322754 
	C1362.261475,1161.114502 1363.447510,1162.558838 1363.118164,1165.790649 
	C1361.905273,1177.692383 1361.104858,1189.635986 1360.179199,1201.190186 
	C1350.351807,1197.256836 1340.906738,1193.012573 1331.148193,1189.688599 
	C1319.042725,1185.565063 1306.487183,1184.226318 1293.851074,1187.069336 
	C1280.298584,1190.118408 1273.619995,1201.104126 1278.076294,1212.492798 
	C1280.291138,1218.153198 1284.813965,1221.685913 1290.132446,1223.795532 
	C1299.486816,1227.506104 1309.136475,1230.465942 1318.546265,1234.045532 
	C1328.588257,1237.865479 1338.859009,1241.328857 1348.388794,1246.201538 
	C1370.352661,1257.432129 1375.776611,1274.116455 1374.525879,1297.130737 
	C1374.180908,1303.479248 1372.664429,1309.999634 1370.421021,1315.965698 
	C1363.245239,1335.048584 1347.894165,1344.696289 1328.970337,1348.839844 
	C1297.007202,1355.838501 1266.000244,1350.861816 1235.630127,1339.922974 
	C1231.877930,1338.571533 1231.824585,1336.091797 1232.143555,1332.888184 
	C1233.262817,1321.644409 1234.228394,1310.385254 1235.314941,1298.444092 
	C1236.875977,1299.121460 1238.301880,1299.662231 1239.658936,1300.340698 
	C1258.609619,1309.815552 1278.441040,1315.840332 1299.852173,1314.890869 
	C1304.724854,1314.674927 1309.706543,1313.497559 1314.331299,1311.883789 
	C1321.905273,1309.240967 1326.134521,1303.473511 1326.808960,1295.427124 
	C1327.434570,1287.964844 1324.612915,1281.486084 1318.084106,1278.203369 
	C1308.685913,1273.477905 1298.707520,1269.882202 1288.895996,1266.009155 
	C1278.289429,1261.822266 1267.243774,1258.575195 1257.055908,1253.563477 
	C1250.527954,1250.352051 1245.205933,1244.689453 1239.123657,1239.840576 
z"/>
<path fill="#224B75" opacity="1.000000" stroke="none" 
	d="
M1675.019653,1663.814209 
	C1679.196655,1679.581909 1683.301880,1694.944702 1687.407104,1710.307373 
	C1687.762573,1710.355347 1688.118042,1710.403442 1688.473511,1710.451538 
	C1689.160156,1708.044434 1689.876709,1705.645264 1690.528198,1703.228760 
	C1693.990356,1690.387085 1697.444946,1677.543335 1700.884277,1664.695557 
	C1702.868896,1657.281372 1702.853760,1657.277344 1711.361450,1658.470825 
	C1707.115967,1673.193848 1702.884521,1687.870972 1698.651245,1702.547485 
	C1697.407227,1706.860474 1695.870972,1711.114380 1694.990967,1715.500244 
	C1694.109253,1719.894165 1692.006104,1721.784424 1687.509644,1720.932007 
	C1686.229492,1720.689331 1684.864502,1720.895020 1683.125488,1720.895020 
	C1678.451782,1703.894409 1673.801758,1686.979614 1669.151611,1670.064941 
	C1668.793457,1670.042236 1668.435303,1670.019409 1668.077026,1669.996704 
	C1666.064697,1677.373657 1664.037231,1684.746704 1662.043823,1692.128662 
	C1659.703369,1700.795776 1657.500977,1709.503052 1654.942383,1718.104736 
	C1654.588623,1719.293701 1652.495850,1720.784180 1651.276367,1720.725098 
	C1648.807007,1720.605713 1644.614136,1720.066650 1644.207642,1718.750610 
	C1638.034302,1698.765137 1632.359375,1678.625854 1626.473145,1658.193604 
	C1629.618408,1658.193604 1632.242676,1658.193604 1635.311646,1658.193604 
	C1639.988525,1675.524780 1644.683472,1692.922485 1649.378296,1710.320190 
	C1649.750732,1710.355225 1650.123291,1710.390381 1650.495728,1710.425537 
	C1655.046753,1693.045044 1659.597778,1675.664429 1664.181885,1658.157959 
	C1667.259766,1658.157959 1670.219238,1658.157959 1673.411621,1658.157959 
	C1673.941406,1659.968872 1674.444702,1661.689087 1675.019653,1663.814209 
z"/>
<path fill="#224B75" opacity="1.000000" stroke="none" 
	d="
M1327.717651,1701.673096 
	C1332.901611,1688.834595 1337.945068,1676.362549 1342.961670,1663.879517 
	C1345.576660,1657.371826 1345.555298,1657.363281 1353.450073,1658.482422 
	C1355.975708,1678.988281 1358.512939,1699.588623 1361.095703,1720.558228 
	C1358.551758,1720.558228 1356.307007,1720.558228 1353.461426,1720.558228 
	C1351.531616,1705.043091 1349.580933,1689.359619 1347.630249,1673.676270 
	C1347.264526,1673.629883 1346.898804,1673.583618 1346.533081,1673.537354 
	C1344.755737,1677.900635 1342.944946,1682.250732 1341.207886,1686.630005 
	C1337.166626,1696.818970 1333.136841,1707.012817 1329.161499,1717.227539 
	C1328.359985,1719.286743 1327.736084,1721.750977 1324.905762,1720.778076 
	C1323.377563,1720.252686 1321.654663,1718.803223 1321.040771,1717.341675 
	C1315.572998,1704.328125 1310.336914,1691.217163 1305.021606,1678.139526 
	C1304.351685,1676.491455 1303.617310,1674.869751 1301.954712,1673.261963 
	C1300.026001,1688.937378 1298.097290,1704.612793 1296.133301,1720.574463 
	C1293.704468,1720.574463 1291.476685,1720.574463 1288.537109,1720.574463 
	C1291.106445,1699.821777 1293.669067,1679.122681 1296.214600,1658.561646 
	C1301.705322,1656.904053 1304.879639,1657.964600 1306.967407,1663.743164 
	C1311.592041,1676.542480 1317.052246,1689.040405 1322.200317,1701.649536 
	C1322.916992,1703.404785 1323.794922,1705.094116 1324.993164,1707.660034 
	C1326.116089,1705.205078 1326.841064,1703.619873 1327.717651,1701.673096 
z"/>
<path fill="#224B75" opacity="1.000000" stroke="none" 
	d="
M533.093628,1679.851685 
	C539.526733,1688.924194 545.768799,1697.692993 552.858887,1707.652954 
	C552.858887,1690.293823 552.858887,1674.314331 552.858887,1658.165771 
	C555.539246,1658.165771 557.653931,1658.165771 560.170898,1658.165771 
	C560.170898,1678.889160 560.170898,1699.571899 560.170898,1720.442871 
	C555.915100,1721.772705 553.042664,1720.647339 550.342896,1716.697632 
	C540.117737,1701.737793 529.510376,1687.039062 518.324646,1671.222778 
	C518.324646,1688.286621 518.324646,1704.227173 518.324646,1720.528564 
	C515.561707,1720.528564 513.329407,1720.528564 510.681396,1720.528564 
	C510.681396,1699.961914 510.681396,1679.272461 510.681396,1658.465820 
	C515.135742,1656.964355 518.261414,1658.165161 520.882446,1662.389404 
	C524.558594,1668.313965 528.865479,1673.847290 533.093628,1679.851685 
z"/>
<path fill="#224B75" opacity="1.000000" stroke="none" 
	d="
M1583.768555,1721.209717 
	C1566.865479,1717.953979 1556.871216,1704.158813 1558.423950,1686.752075 
	C1560.066162,1668.339355 1571.411011,1657.240723 1588.908569,1656.928589 
	C1604.455200,1656.651245 1615.793945,1664.309204 1619.863892,1677.835571 
	C1624.495972,1693.229858 1619.555054,1709.341553 1607.701904,1717.013062 
	C1600.499023,1721.674805 1592.519531,1722.549316 1583.768555,1721.209717 
M1566.904419,1685.825195 
	C1566.941772,1688.645020 1566.747559,1691.490479 1567.057983,1694.279907 
	C1568.192017,1704.475220 1574.700928,1712.117310 1583.927002,1714.110352 
	C1593.196289,1716.112427 1601.807617,1714.722778 1607.659668,1706.722168 
	C1614.728394,1697.058105 1614.992554,1686.254517 1610.031006,1675.579712 
	C1605.916748,1666.727539 1598.254517,1663.524048 1588.782837,1663.847046 
	C1576.891846,1664.252441 1569.224976,1671.592773 1566.904419,1685.825195 
z"/>
<path fill="#224B75" opacity="1.000000" stroke="none" 
	d="
M706.547729,1692.574707 
	C703.423279,1714.351074 688.810608,1724.909180 667.605652,1720.963867 
	C664.869934,1720.454834 662.143921,1719.438110 659.644226,1718.193237 
	C647.250854,1712.020508 641.002319,1696.824585 644.317993,1681.317627 
	C647.406738,1666.872192 658.294556,1657.507080 672.613647,1656.979370 
	C694.561218,1656.170532 707.681519,1669.744995 706.547729,1692.574707 
M654.255005,1677.039185 
	C653.513306,1682.252808 651.983887,1687.497314 652.185791,1692.674072 
	C652.681091,1705.374023 661.372314,1714.021240 673.461182,1714.853271 
	C685.917725,1715.710693 695.294434,1708.552246 697.660034,1696.006958 
	C698.297913,1692.624023 698.257080,1689.041992 698.040222,1685.581909 
	C697.350098,1674.570801 690.715332,1666.431885 680.968750,1664.273560 
	C669.647888,1661.766602 660.220764,1666.098877 654.255005,1677.039185 
z"/>
<path fill="#224B75" opacity="1.000000" stroke="none" 
	d="
M1279.513306,1684.507568 
	C1278.963501,1690.688110 1279.220703,1696.708862 1277.525513,1702.117798 
	C1273.247070,1715.769287 1259.756470,1723.430420 1244.751221,1721.662109 
	C1228.960449,1719.801147 1218.324463,1709.474365 1217.061279,1694.357300 
	C1216.704468,1690.087402 1216.698853,1685.621338 1217.539062,1681.447998 
	C1220.834961,1665.079590 1232.837769,1656.366821 1250.615479,1656.954590 
	C1266.235596,1657.471069 1276.834595,1667.444336 1279.513306,1684.507568 
M1268.756836,1676.027222 
	C1262.482666,1665.093140 1250.817627,1660.812622 1239.353638,1665.237671 
	C1229.529541,1669.029785 1223.847778,1680.054932 1225.114014,1692.868774 
	C1226.386719,1705.747314 1234.640625,1714.132324 1246.762085,1714.860474 
	C1258.894409,1715.589111 1268.563232,1708.913574 1270.421509,1696.779175 
	C1271.409790,1690.325562 1269.585693,1683.441162 1268.756836,1676.027222 
z"/>
<path fill="#224B75" opacity="1.000000" stroke="none" 
	d="
M1396.397217,1657.078613 
	C1401.961670,1657.470093 1407.297119,1657.112183 1412.142944,1658.484131 
	C1426.373169,1662.513062 1434.827515,1677.513306 1432.666260,1693.703369 
	C1430.202881,1712.155884 1417.119995,1723.063843 1399.015625,1721.759888 
	C1381.093994,1720.468994 1369.989868,1708.077759 1369.765381,1689.603516 
	C1369.565186,1673.140259 1379.510010,1659.191162 1396.397217,1657.078613 
M1419.691772,1706.053345 
	C1424.109619,1699.501465 1424.998047,1692.226562 1424.135498,1684.575195 
	C1422.375000,1668.958374 1408.776489,1660.121704 1393.758423,1664.855835 
	C1382.974243,1668.255493 1376.543335,1679.652588 1378.185669,1692.941528 
	C1379.386841,1702.660522 1383.538696,1710.708252 1393.541138,1713.648682 
	C1403.274170,1716.509766 1412.355225,1715.130127 1419.691772,1706.053345 
z"/>
<path fill="#234C76" opacity="1.000000" stroke="none" 
	d="
M756.309204,1717.429443 
	C753.117554,1718.443726 750.275818,1719.886475 747.388550,1719.984497 
	C738.273315,1720.293335 729.140991,1720.098389 719.583557,1720.098389 
	C719.583557,1700.024170 719.583557,1679.349976 719.583557,1657.429321 
	C730.348145,1658.053711 741.311401,1657.913086 752.000427,1659.556152 
	C760.514343,1660.864746 766.236389,1667.006226 769.284058,1675.244629 
	C773.976135,1687.928345 772.644653,1709.731201 756.309204,1717.429443 
M727.171936,1702.477539 
	C727.171936,1706.245850 727.171936,1710.014160 727.171936,1714.083252 
	C739.565369,1713.615112 752.845886,1716.948853 759.844727,1703.590820 
	C765.229004,1693.314575 765.499695,1681.991089 758.295776,1672.339600 
	C750.342590,1661.684082 738.333374,1665.296021 727.171997,1664.857178 
	C727.171997,1677.537964 727.171997,1689.511719 727.171936,1702.477539 
z"/>
<path fill="#204974" opacity="1.000000" stroke="none" 
	d="
M1102.975098,1657.989136 
	C1105.800293,1658.011841 1108.137207,1657.932861 1110.460815,1658.073486 
	C1125.838867,1659.003540 1136.084473,1669.119507 1137.020142,1684.525269 
	C1137.270874,1688.654297 1137.332397,1692.909790 1136.633057,1696.960815 
	C1134.292847,1710.517944 1126.051880,1718.673096 1112.257568,1720.029297 
	C1103.416626,1720.898682 1094.420898,1720.192505 1085.250488,1720.192505 
	C1085.250488,1699.824219 1085.250488,1679.242310 1085.250488,1657.989136 
	C1090.967285,1657.989136 1096.723877,1657.989136 1102.975098,1657.989136 
M1093.007080,1682.500977 
	C1093.007080,1692.913452 1093.007080,1703.325928 1093.007080,1714.073730 
	C1104.920654,1713.599121 1117.670410,1716.904541 1125.049194,1704.626709 
	C1130.983032,1694.753418 1131.194336,1683.706055 1125.088135,1673.804810 
	C1117.536133,1661.559204 1104.788086,1665.362061 1093.007080,1664.773193 
	C1093.007080,1670.618774 1093.007080,1676.060181 1093.007080,1682.500977 
z"/>
<path fill="#254D77" opacity="1.000000" stroke="none" 
	d="
M1525.536255,1698.052002 
	C1521.835205,1692.956787 1517.082520,1696.161743 1512.403931,1695.121704 
	C1512.403931,1703.935669 1512.403931,1712.177368 1512.403931,1720.655273 
	C1509.615234,1720.655273 1507.350220,1720.655273 1504.712646,1720.655273 
	C1504.712646,1699.930054 1504.712646,1679.237061 1504.712646,1658.634644 
	C1514.352661,1658.634644 1523.990723,1657.932129 1533.475342,1658.837524 
	C1542.480591,1659.697144 1546.547363,1664.720215 1547.072632,1672.689575 
	C1547.749268,1682.958984 1543.936157,1689.526245 1535.557129,1692.492188 
	C1534.364868,1692.914185 1533.148193,1693.266602 1531.323730,1693.848877 
	C1538.452881,1702.833618 1545.292969,1711.453979 1552.455444,1720.480591 
	C1546.724365,1721.509277 1542.736206,1721.150757 1539.503296,1716.118164 
	C1535.476196,1709.849243 1530.418457,1704.242188 1525.536255,1698.052002 
M1527.218140,1664.755615 
	C1522.314209,1664.755615 1517.410156,1664.755615 1512.572510,1664.755615 
	C1512.572510,1673.150635 1512.572510,1680.845459 1512.572510,1689.094238 
	C1518.278931,1688.754761 1523.601929,1688.779785 1528.817749,1688.045166 
	C1536.062378,1687.024658 1539.217529,1682.689209 1538.957886,1675.133179 
	C1538.728149,1668.450317 1535.810181,1665.670654 1527.218140,1664.755615 
z"/>
<path fill="#254D77" opacity="1.000000" stroke="none" 
	d="
M1473.276611,1706.755615 
	C1471.822754,1704.906738 1470.298828,1703.479492 1469.424805,1701.727905 
	C1466.054321,1694.973999 1460.479736,1694.213379 1453.430908,1695.779907 
	C1453.430908,1703.874146 1453.430908,1712.113403 1453.430908,1720.622437 
	C1450.644165,1720.622437 1448.390381,1720.622437 1445.729370,1720.622437 
	C1445.729370,1699.963989 1445.729370,1679.278442 1445.729370,1658.624146 
	C1455.293579,1658.624146 1464.927368,1657.928955 1474.411011,1658.824951 
	C1483.419434,1659.675903 1487.550659,1664.728882 1488.062744,1672.648682 
	C1488.729004,1682.957275 1484.933838,1689.517578 1476.569702,1692.483398 
	C1475.375488,1692.906738 1474.155640,1693.258423 1472.267822,1693.859985 
	C1479.429443,1702.843384 1486.291016,1711.450439 1493.478271,1720.465942 
	C1487.708008,1721.526245 1483.449951,1721.336792 1480.525635,1716.089355 
	C1478.686768,1712.789673 1475.878418,1710.030273 1473.276611,1706.755615 
M1479.819458,1673.096313 
	C1478.981323,1668.436279 1476.198975,1665.426514 1471.535889,1665.124023 
	C1465.615112,1664.739990 1459.650391,1665.031006 1453.443726,1665.031006 
	C1453.443726,1672.885254 1453.443726,1680.595703 1453.443726,1688.514648 
	C1458.333740,1688.514648 1462.987305,1688.932983 1467.538574,1688.427856 
	C1477.187744,1687.357056 1479.980347,1683.836060 1479.819458,1673.096313 
z"/>
<path fill="#234C76" opacity="1.000000" stroke="none" 
	d="
M495.932953,1716.107178 
	C497.059509,1717.574829 497.968231,1718.752441 499.230103,1720.387695 
	C494.259491,1721.206421 490.251282,1721.819946 487.042786,1716.856079 
	C483.623749,1711.566650 478.768829,1707.175293 475.568024,1701.782227 
	C471.612427,1695.117554 466.266937,1694.107788 459.082520,1695.804443 
	C459.082520,1703.935791 459.082520,1712.198975 459.082520,1720.671753 
	C456.354645,1720.671753 454.104889,1720.671753 451.553406,1720.671753 
	C451.553406,1699.900757 451.553406,1679.322144 451.553406,1657.438599 
	C462.245941,1658.068359 472.999725,1658.113281 483.567383,1659.538208 
	C490.243652,1660.438599 493.638000,1665.966431 494.029449,1672.975708 
	C494.552551,1682.341797 491.159058,1688.843384 484.059174,1691.890991 
	C482.420929,1692.594116 480.670288,1693.035400 478.215393,1693.847168 
	C484.209900,1701.372925 489.962494,1708.595093 495.932953,1716.107178 
M459.101990,1677.485229 
	C459.101990,1681.095459 459.101990,1684.705688 459.101990,1689.177368 
	C465.559509,1688.715820 471.529327,1688.738159 477.327179,1687.750732 
	C483.347168,1686.725708 486.200989,1681.898560 485.904907,1675.008911 
	C485.654907,1669.191772 482.907501,1665.553345 477.416504,1665.135620 
	C471.516022,1664.686646 465.554932,1665.034302 459.101990,1665.034302 
	C459.101990,1668.943481 459.101990,1672.722046 459.101990,1677.485229 
z"/>
<path fill="#224B75" opacity="1.000000" stroke="none" 
	d="
M358.999359,1657.985352 
	C365.286682,1657.985352 371.074219,1657.985352 377.072083,1657.985352 
	C377.072083,1660.318115 377.072083,1662.264771 377.072083,1664.644409 
	C366.929047,1664.644409 356.865875,1664.644409 346.442505,1664.644409 
	C346.442505,1671.782104 346.442505,1678.497437 346.442505,1685.731934 
	C356.101715,1685.731934 365.683380,1685.731934 375.444702,1685.731934 
	C375.444702,1688.032715 375.444702,1689.819824 375.444702,1692.097656 
	C365.735077,1692.097656 356.151367,1692.097656 346.328552,1692.097656 
	C346.328552,1699.504028 346.328552,1706.425293 346.328552,1713.746216 
	C356.486877,1713.746216 366.572510,1713.746216 377.041595,1713.746216 
	C377.041595,1716.177002 377.041595,1718.218750 377.041595,1720.581299 
	C364.325867,1720.581299 351.610413,1720.581299 338.543518,1720.581299 
	C338.543518,1699.862061 338.543518,1679.172363 338.543518,1657.985352 
	C345.277924,1657.985352 351.888763,1657.985352 358.999359,1657.985352 
z"/>
<path fill="#214A75" opacity="1.000000" stroke="none" 
	d="
M397.996704,1684.877808 
	C401.002777,1676.547729 403.775116,1668.541626 406.951416,1660.698975 
	C407.467957,1659.423706 409.853821,1658.034424 411.234406,1658.166992 
	C413.846710,1658.418213 417.503296,1655.943970 419.018921,1660.157593 
	C426.206421,1680.139771 433.332977,1700.143799 440.494873,1720.178467 
	C432.806458,1721.837158 432.739380,1721.799805 430.385406,1714.968018 
	C429.255524,1711.688965 428.119232,1708.411987 426.944580,1705.014771 
	C418.200470,1705.014771 409.716766,1704.914917 401.241058,1705.130737 
	C400.072693,1705.160522 398.513641,1706.521484 397.889893,1707.674438 
	C396.717346,1709.841553 395.709686,1712.244507 395.321747,1714.660034 
	C394.396027,1720.424072 391.138184,1722.009155 385.196411,1720.403198 
	C389.418060,1708.720703 393.657715,1696.988403 397.996704,1684.877808 
M422.107208,1698.819458 
	C422.754578,1698.038940 424.112854,1697.024780 423.944427,1696.512451 
	C420.558624,1686.212036 416.997101,1675.969238 413.470978,1665.714844 
	C413.101990,1665.734497 412.732971,1665.754028 412.363983,1665.773560 
	C408.574066,1676.600952 404.784119,1687.428345 400.795044,1698.824585 
	C408.001007,1698.824585 414.591492,1698.824585 422.107208,1698.819458 
z"/>
<path fill="#214A75" opacity="1.000000" stroke="none" 
	d="
M815.521118,1705.014893 
	C807.917969,1705.013306 800.756958,1705.225708 793.618347,1704.919189 
	C790.286377,1704.776123 788.952271,1706.055420 788.088745,1709.002930 
	C786.927979,1712.965210 785.376099,1716.812866 784.002014,1720.681885 
	C781.274536,1720.681885 778.835754,1720.681885 776.005920,1720.681885 
	C782.861450,1701.661133 789.598206,1682.950684 796.350830,1664.245728 
	C798.557373,1658.133545 801.586182,1656.438599 807.733459,1658.072998 
	C808.620117,1658.308594 809.625793,1659.361816 809.949829,1660.262207 
	C817.026978,1679.926758 824.016968,1699.622559 831.005493,1719.318848 
	C831.106445,1719.603027 830.978210,1719.968628 830.953369,1720.296021 
	C823.575073,1721.735718 823.570312,1721.737305 821.221069,1714.799927 
	C820.423096,1712.443604 819.840332,1709.990967 818.796570,1707.751343 
	C818.279602,1706.641846 816.940002,1705.915771 815.521118,1705.014893 
M798.642395,1679.082397 
	C796.403259,1685.469360 794.164124,1691.856201 791.818237,1698.547607 
	C799.895813,1698.547607 807.427856,1698.547607 815.704712,1698.547607 
	C811.803833,1687.231689 808.068787,1676.396851 803.862976,1664.196533 
	C801.848938,1669.935547 800.374084,1674.138062 798.642395,1679.082397 
z"/>
<path fill="#214A75" opacity="1.000000" stroke="none" 
	d="
M1068.223633,1703.627930 
	C1070.296143,1709.440918 1072.242554,1714.883179 1074.315430,1720.678955 
	C1071.331787,1720.678955 1068.882812,1720.678955 1066.132812,1720.678955 
	C1064.337280,1715.616333 1062.514404,1710.476562 1060.577637,1705.015503 
	C1051.960815,1705.015503 1043.315796,1704.936890 1034.676147,1705.116577 
	C1033.612183,1705.138672 1032.124268,1706.318726 1031.619629,1707.348145 
	C1030.458008,1709.717529 1029.468506,1712.264648 1028.971436,1714.847656 
	C1027.886841,1720.483154 1024.745972,1722.230713 1018.881348,1720.317505 
	C1026.324219,1699.708862 1033.797119,1679.016968 1041.322021,1658.181152 
	C1044.715698,1658.181152 1048.021851,1658.181152 1051.982300,1658.181152 
	C1057.290771,1673.029175 1062.694214,1688.143066 1068.223633,1703.627930 
M1056.879272,1693.774658 
	C1053.567261,1684.254639 1050.255371,1674.734497 1046.568359,1664.136597 
	C1042.343750,1676.309814 1038.521606,1687.323120 1034.609741,1698.595337 
	C1042.904175,1698.595337 1050.335083,1698.595337 1058.182251,1698.595337 
	C1057.756104,1697.040161 1057.416870,1695.802612 1056.879272,1693.774658 
z"/>
<path fill="#204974" opacity="1.000000" stroke="none" 
	d="
M993.010376,1692.195190 
	C988.542969,1692.195190 984.572754,1692.195190 980.240723,1692.195190 
	C980.240723,1699.405518 980.240723,1706.311890 980.240723,1713.807129 
	C990.224487,1713.807129 1000.433411,1713.807129 1010.839844,1713.807129 
	C1010.839844,1716.329956 1010.839844,1718.272583 1010.839844,1720.553589 
	C998.123474,1720.553589 985.397339,1720.553589 972.327820,1720.553589 
	C972.327820,1699.916504 972.327820,1679.220947 972.327820,1658.256348 
	C985.048462,1658.256348 997.772400,1658.256348 1010.754150,1658.256348 
	C1010.754150,1660.259277 1010.754150,1662.188477 1010.754150,1664.576416 
	C1000.790222,1664.576416 990.728149,1664.576416 980.272400,1664.576416 
	C980.272400,1671.724609 980.272400,1678.430420 980.272400,1685.568359 
	C989.690369,1685.568359 999.104187,1685.568359 1008.841064,1685.568359 
	C1008.841064,1687.872925 1008.841064,1689.757690 1008.841064,1692.195190 
	C1003.731140,1692.195190 998.619385,1692.195190 993.010376,1692.195190 
z"/>
<path fill="#224B75" opacity="1.000000" stroke="none" 
	d="
M856.895874,1720.885254 
	C854.822327,1720.892700 853.207397,1720.892700 851.111145,1720.892700 
	C851.111145,1713.752930 851.358215,1707.116455 850.999756,1700.512939 
	C850.837280,1697.520020 850.020996,1694.283691 848.559448,1691.688354 
	C842.295349,1680.565186 835.680603,1669.639526 829.121155,1658.518799 
	C835.164124,1656.802246 838.839966,1658.256836 841.576599,1664.025757 
	C845.392395,1672.069580 850.276733,1679.606689 855.210144,1688.247559 
	C860.160217,1679.585327 865.022522,1671.906006 869.015320,1663.798706 
	C871.695190,1658.357300 875.213013,1656.730591 881.173279,1658.584106 
	C874.902283,1669.239746 868.819031,1679.887451 862.396851,1690.326538 
	C860.031006,1694.172241 858.786194,1697.972900 859.063293,1702.502075 
	C859.357849,1707.315674 859.253296,1712.166626 859.047791,1716.989624 
	C858.991638,1718.307373 857.945984,1719.583008 856.895874,1720.885254 
z"/>
<path fill="#264E78" opacity="1.000000" stroke="none" 
	d="
M929.613403,1675.002075 
	C929.613342,1687.966431 929.613342,1700.431152 929.613342,1713.427979 
	C940.059021,1713.427979 950.119202,1713.427979 960.536133,1713.427979 
	C960.536133,1716.003540 960.536133,1718.066284 960.536133,1720.521484 
	C947.809814,1720.521484 934.935852,1720.521484 921.774170,1720.521484 
	C921.774170,1699.764893 921.774170,1679.027344 921.774170,1658.132568 
	C924.314331,1658.132568 926.618958,1658.132568 929.613464,1658.132568 
	C929.613464,1663.643311 929.613464,1669.072876 929.613403,1675.002075 
z"/>
<path fill="#1E4672" opacity="1.000000" stroke="none" 
	d="
M1191.010498,1666.266602 
	C1190.949219,1684.535034 1190.949219,1702.326172 1190.949219,1720.498779 
	C1188.326416,1720.498779 1185.948608,1720.498779 1183.178101,1720.498779 
	C1183.178101,1702.329468 1183.178101,1684.089600 1183.178101,1665.200928 
	C1175.804810,1665.200928 1168.770142,1665.200928 1161.516724,1665.200928 
	C1161.516724,1662.620605 1161.516724,1660.685547 1161.516724,1658.371826 
	C1178.199707,1658.371826 1194.917236,1658.371826 1211.969116,1658.371826 
	C1211.969116,1660.239258 1211.969116,1662.304321 1211.969116,1664.625854 
	C1205.044067,1665.011475 1198.057983,1665.400513 1191.010498,1666.266602 
z"/>
<path fill="#204974" opacity="1.000000" stroke="none" 
	d="
M607.652039,1665.058594 
	C601.045288,1665.048096 594.913818,1665.048096 588.468506,1665.048096 
	C588.468506,1662.669800 588.468506,1660.617554 588.468506,1658.274658 
	C605.224731,1658.274658 621.936035,1658.274658 638.909424,1658.274658 
	C638.909424,1660.419067 638.909424,1662.479004 638.909424,1664.929932 
	C632.054443,1664.929932 625.299133,1664.929932 617.966309,1664.929932 
	C617.966309,1683.650513 617.966309,1701.997681 617.966309,1720.612549 
	C615.130981,1720.612549 612.872559,1720.612549 609.850037,1720.612549 
	C609.850037,1718.927979 609.850037,1717.177979 609.850037,1715.428101 
	C609.849976,1700.123779 609.897156,1684.818970 609.774658,1669.515625 
	C609.762756,1668.029175 608.701477,1666.551025 607.652039,1665.058594 
z"/>
<path fill="#204974" opacity="1.000000" stroke="none" 
	d="
M296.066772,1720.890381 
	C293.267822,1720.890381 290.958221,1720.890381 288.288635,1720.890381 
	C288.288635,1699.931641 288.288635,1679.237915 288.288635,1658.265625 
	C290.639343,1658.265625 293.030457,1658.265625 295.860962,1658.265625 
	C295.860962,1676.638672 295.860962,1694.881104 295.860962,1713.556885 
	C306.355408,1713.556885 316.429626,1713.556885 326.786072,1713.556885 
	C326.786072,1716.079834 326.786072,1718.169434 326.786072,1720.890381 
	C316.750641,1720.890381 306.653381,1720.890381 296.066772,1720.890381 
z"/>
<path fill="#264E78" opacity="1.000000" stroke="none" 
	d="
M891.918579,1716.969238 
	C889.929749,1728.157349 885.502380,1734.336914 880.873108,1734.231689 
	C882.065857,1726.444580 883.277283,1718.535522 884.513550,1710.464111 
	C890.079834,1709.497314 891.151672,1710.305298 891.918579,1716.969238 
z"/>
<path fill="#FFFFFF" opacity="1.000000" stroke="none" 
	d="
M1109.793335,660.838013 
	C1029.123291,706.622681 948.780945,752.240112 867.985168,798.114929 
	C867.985168,664.993652 867.985168,532.588989 867.985168,399.038239 
	C980.752930,468.263824 1092.996704,537.167664 1205.676636,606.339355 
	C1173.421387,624.679138 1141.771240,642.674927 1109.793335,660.838013 
z"/>
<path fill="#FEFEFE" opacity="1.000000" stroke="none" 
	d="
M1156.994751,555.042480 
	C1064.607300,498.349518 972.545044,441.820496 879.558105,384.723724 
	C891.659424,380.685852 902.708435,376.920532 913.807251,373.308411 
	C991.360413,348.068329 1068.924683,322.862549 1146.483032,297.638550 
	C1157.864868,293.936890 1158.304077,294.025726 1160.423096,305.717163 
	C1169.350952,354.975830 1178.154175,404.257111 1186.995483,453.531464 
	C1193.839722,491.674988 1200.708862,529.814087 1207.474609,567.971558 
	C1208.574219,574.172729 1209.194824,580.458862 1210.165894,587.664307 
	C1192.063110,576.545593 1174.691406,565.876038 1156.994751,555.042480 
z"/>
<path fill="#FFFFFF" opacity="1.000000" stroke="none" 
	d="
M792.469360,456.465240 
	C810.555664,439.083069 828.390076,421.946503 846.885010,404.175262 
	C846.885010,533.225830 846.885010,661.228821 846.885010,790.155640 
	C782.235962,723.116333 718.126526,656.636719 653.710144,589.838745 
	C700.037048,545.311096 746.127258,501.010956 792.469360,456.465240 
z"/>
<path fill="#FEFEFE" opacity="1.000000" stroke="none" 
	d="
M1120.018311,675.971436 
	C1149.644409,659.112488 1178.934082,642.399658 1209.650146,624.873047 
	C1206.814453,637.900452 1204.427246,649.557373 1201.730835,661.142395 
	C1185.864380,729.313171 1169.919678,797.465759 1154.018433,865.628418 
	C1151.174438,877.819946 1150.667725,878.217529 1138.694946,875.247009 
	C1056.417725,854.833557 974.144653,834.402588 891.881897,813.930420 
	C889.198914,813.262695 886.640991,812.092468 883.216003,810.867188 
	C962.576233,765.643982 1041.129028,720.880798 1120.018311,675.971436 
z"/>
<path fill="#FEFEFE" opacity="1.000000" stroke="none" 
	d="
M967.725342,336.842957 
	C936.207947,347.079742 905.081909,357.228607 873.940613,367.330261 
	C863.590759,370.687592 861.157227,369.483063 856.558899,359.463928 
	C846.990845,338.616516 837.332703,317.810516 827.765808,296.962616 
	C825.911133,292.920898 824.303528,288.765808 822.352112,284.115295 
	C923.544617,284.115295 1024.028442,284.115295 1124.512329,284.115295 
	C1124.653320,284.584778 1124.794312,285.054230 1124.935303,285.523712 
	C1072.660400,302.594696 1020.385559,319.665710 967.725342,336.842957 
z"/>
<path fill="#FEFEFE" opacity="1.000000" stroke="none" 
	d="
M1197.804443,409.227722 
	C1193.357056,383.713562 1188.331665,358.724823 1184.618408,333.533936 
	C1185.305542,333.347839 1185.992676,333.161774 1186.679932,332.975677 
	C1232.325317,413.622620 1277.970703,494.269562 1324.019531,575.629272 
	C1310.599121,578.800964 1297.794556,581.948792 1284.931396,584.835083 
	C1270.170410,588.147339 1255.350830,591.198303 1240.569458,594.420837 
	C1232.824585,596.109375 1230.502563,594.743530 1229.141602,587.040344 
	C1219.042236,529.881226 1208.985229,472.714630 1198.915039,415.550385 
	C1198.568726,413.584625 1198.224731,411.618500 1197.804443,409.227722 
z"/>
<path fill="#FEFEFE" opacity="1.000000" stroke="none" 
	d="
M820.814087,324.230499 
	C828.091858,339.959015 835.244263,355.329437 842.358765,370.717377 
	C846.099609,378.808502 845.724731,380.966064 839.441772,386.969727 
	C781.851562,441.999542 724.252747,497.020416 666.627686,552.013733 
	C665.154663,553.419434 663.354065,554.481934 661.706238,555.704529 
	C661.223938,555.323486 660.741638,554.942505 660.259338,554.561462 
	C708.934204,468.811676 757.609131,383.061859 807.080994,295.908173 
	C811.906494,305.838776 816.289734,314.859222 820.814087,324.230499 
z"/>
<path fill="#FEFEFE" opacity="1.000000" stroke="none" 
	d="
M1256.058105,716.034180 
	C1229.608643,762.733887 1203.309692,809.098694 1177.010620,855.463501 
	C1176.423584,855.325684 1175.836670,855.187866 1175.249634,855.050049 
	C1175.628662,852.316711 1175.790771,849.532410 1176.418579,846.857422 
	C1191.417725,782.951294 1206.463745,719.056274 1221.510010,655.161316 
	C1223.871582,645.132629 1226.466187,635.154297 1228.596558,625.077271 
	C1230.216309,617.415894 1234.024170,613.168457 1242.199463,611.521973 
	C1268.916260,606.141113 1295.482788,600.014709 1322.111206,594.193359 
	C1322.898071,594.021301 1323.730103,594.054749 1325.284912,593.935120 
	C1302.067627,634.861023 1279.138062,675.280212 1256.058105,716.034180 
z"/>
<path fill="#FDFDFD" opacity="1.000000" stroke="none" 
	d="
M945.005493,844.978271 
	C999.267822,858.639709 1053.122192,872.233337 1106.976562,885.827026 
	C1106.871460,886.372131 1106.766235,886.917297 1106.661011,887.462463 
	C1012.721680,887.462463 918.782288,887.462463 824.338562,887.462463 
	C824.888062,886.313416 825.380615,885.034973 826.071960,883.875000 
	C836.287231,866.735229 846.510010,849.599915 856.774841,832.489807 
	C860.400940,826.445435 864.321411,824.772095 871.579285,826.571899 
	C895.936646,832.612488 920.260681,838.787231 945.005493,844.978271 
z"/>
<path fill="#FDFDFD" opacity="1.000000" stroke="none" 
	d="
M693.974243,676.017334 
	C687.515320,664.565002 681.212158,653.444885 674.908997,642.324768 
	C675.421936,641.879944 675.934875,641.435120 676.447815,640.990234 
	C679.115417,643.423157 681.920715,645.722656 684.428711,648.310303 
	C703.784973,668.281067 723.061096,688.329407 742.405334,708.311890 
	C772.638000,739.541992 802.889526,770.753967 833.164368,801.943237 
	C845.376343,814.523987 845.473083,816.427612 836.121277,831.436096 
	C827.857361,844.698547 819.959229,858.188965 811.895020,871.575928 
	C810.800476,873.392883 809.678894,875.193542 808.235229,877.547302 
	C770.032776,810.186279 732.081421,743.267944 693.974243,676.017334 
z"/>
<path fill="#FEFEFE" opacity="1.000000" stroke="none" 
	d="
M582.265503,1240.539307 
	C578.552734,1241.501465 575.182983,1242.809570 571.781494,1242.897949 
	C561.013977,1243.177856 550.234619,1243.001343 539.201294,1243.001343 
	C539.201294,1224.843140 539.201294,1206.763550 539.201294,1187.312256 
	C552.994446,1188.061890 566.960205,1187.821289 580.579407,1189.876831 
	C591.533569,1191.529907 595.882324,1200.483765 596.410645,1211.141602 
	C597.108521,1225.220337 593.862427,1235.965210 582.265503,1240.539307 
z"/>
<path fill="#FEFEFE" opacity="1.000000" stroke="none" 
	d="
M786.609863,1266.492432 
	C787.232971,1268.777100 787.673096,1270.687256 788.179688,1272.885986 
	C771.395874,1272.885986 754.952087,1272.885986 738.183716,1272.885986 
	C743.609375,1254.173706 748.984314,1235.620850 754.369202,1217.070923 
	C756.580200,1209.454712 758.752380,1201.825928 761.096130,1194.250488 
	C761.471069,1193.038574 762.657776,1192.077637 763.469238,1191.000732 
	C764.304565,1192.047852 765.569519,1192.971558 765.911926,1194.160767 
	C772.813843,1218.128174 779.609680,1242.125977 786.609863,1266.492432 
z"/>
<path fill="#FDFDFE" opacity="1.000000" stroke="none" 
	d="
M1566.937500,1685.375977 
	C1569.224976,1671.592773 1576.891846,1664.252441 1588.782837,1663.847046 
	C1598.254517,1663.524048 1605.916748,1666.727539 1610.031006,1675.579712 
	C1614.992554,1686.254517 1614.728394,1697.058105 1607.659668,1706.722168 
	C1601.807617,1714.722778 1593.196289,1716.112427 1583.927002,1714.110352 
	C1574.700928,1712.117310 1568.192017,1704.475220 1567.057983,1694.279907 
	C1566.747559,1691.490479 1566.941772,1688.645020 1566.937500,1685.375977 
z"/>
<path fill="#FDFDFE" opacity="1.000000" stroke="none" 
	d="
M654.446899,1676.706177 
	C660.220764,1666.098877 669.647888,1661.766602 680.968750,1664.273560 
	C690.715332,1666.431885 697.350098,1674.570801 698.040222,1685.581909 
	C698.257080,1689.041992 698.297913,1692.624023 697.660034,1696.006958 
	C695.294434,1708.552246 685.917725,1715.710693 673.461182,1714.853271 
	C661.372314,1714.021240 652.681091,1705.374023 652.185791,1692.674072 
	C651.983887,1687.497314 653.513306,1682.252808 654.446899,1676.706177 
z"/>
<path fill="#FDFDFE" opacity="1.000000" stroke="none" 
	d="
M1268.893921,1676.389160 
	C1269.585693,1683.441162 1271.409790,1690.325562 1270.421509,1696.779175 
	C1268.563232,1708.913574 1258.894409,1715.589111 1246.762085,1714.860474 
	C1234.640625,1714.132324 1226.386719,1705.747314 1225.114014,1692.868774 
	C1223.847778,1680.054932 1229.529541,1669.029785 1239.353638,1665.237671 
	C1250.817627,1660.812622 1262.482666,1665.093140 1268.893921,1676.389160 
z"/>
<path fill="#FDFDFE" opacity="1.000000" stroke="none" 
	d="
M1419.459717,1706.338135 
	C1412.355225,1715.130127 1403.274170,1716.509766 1393.541138,1713.648682 
	C1383.538696,1710.708252 1379.386841,1702.660522 1378.185669,1692.941528 
	C1376.543335,1679.652588 1382.974243,1668.255493 1393.758423,1664.855835 
	C1408.776489,1660.121704 1422.375000,1668.958374 1424.135498,1684.575195 
	C1424.998047,1692.226562 1424.109619,1699.501465 1419.459717,1706.338135 
z"/>
<path fill="#FDFDFD" opacity="1.000000" stroke="none" 
	d="
M727.171997,1701.981445 
	C727.171997,1689.511719 727.171997,1677.537964 727.171997,1664.857178 
	C738.333374,1665.296021 750.342590,1661.684082 758.295776,1672.339600 
	C765.499695,1681.991089 765.229004,1693.314575 759.844727,1703.590820 
	C752.845886,1716.948853 739.565369,1713.615112 727.171936,1714.083252 
	C727.171936,1710.014160 727.171936,1706.245850 727.171997,1701.981445 
z"/>
<path fill="#FEFEFE" opacity="1.000000" stroke="none" 
	d="
M1093.007080,1682.001221 
	C1093.007080,1676.060181 1093.007080,1670.618774 1093.007080,1664.773193 
	C1104.788086,1665.362061 1117.536133,1661.559204 1125.088135,1673.804810 
	C1131.194336,1683.706055 1130.983032,1694.753418 1125.049194,1704.626709 
	C1117.670410,1716.904541 1104.920654,1713.599121 1093.007080,1714.073730 
	C1093.007080,1703.325928 1093.007080,1692.913452 1093.007080,1682.001221 
z"/>
<path fill="#F9FAFC" opacity="1.000000" stroke="none" 
	d="
M1527.675415,1664.788330 
	C1535.810181,1665.670654 1538.728149,1668.450317 1538.957886,1675.133179 
	C1539.217529,1682.689209 1536.062378,1687.024658 1528.817749,1688.045166 
	C1523.601929,1688.779785 1518.278931,1688.754761 1512.572510,1689.094238 
	C1512.572510,1680.845459 1512.572510,1673.150635 1512.572510,1664.755615 
	C1517.410156,1664.755615 1522.314209,1664.755615 1527.675415,1664.788330 
z"/>
<path fill="#F9FAFC" opacity="1.000000" stroke="none" 
	d="
M1479.861206,1673.510376 
	C1479.980347,1683.836060 1477.187744,1687.357056 1467.538574,1688.427856 
	C1462.987305,1688.932983 1458.333740,1688.514648 1453.443726,1688.514648 
	C1453.443726,1680.595703 1453.443726,1672.885254 1453.443726,1665.031006 
	C1459.650391,1665.031006 1465.615112,1664.739990 1471.535889,1665.124023 
	C1476.198975,1665.426514 1478.981323,1668.436279 1479.861206,1673.510376 
z"/>
<path fill="#F9FAFC" opacity="1.000000" stroke="none" 
	d="
M459.101990,1676.992920 
	C459.101990,1672.722046 459.101990,1668.943481 459.101990,1665.034302 
	C465.554932,1665.034302 471.516022,1664.686646 477.416504,1665.135620 
	C482.907501,1665.553345 485.654907,1669.191772 485.904907,1675.008911 
	C486.200989,1681.898560 483.347168,1686.725708 477.327179,1687.750732 
	C471.529327,1688.738159 465.559509,1688.715820 459.101990,1689.177368 
	C459.101990,1684.705688 459.101990,1681.095459 459.101990,1676.992920 
z"/>
<path fill="#F7F9FA" opacity="1.000000" stroke="none" 
	d="
M421.644592,1698.822021 
	C414.591492,1698.824585 408.001007,1698.824585 400.795044,1698.824585 
	C404.784119,1687.428345 408.574066,1676.600952 412.363983,1665.773560 
	C412.732971,1665.754028 413.101990,1665.734497 413.470978,1665.714844 
	C416.997101,1675.969238 420.558624,1686.212036 423.944427,1696.512451 
	C424.112854,1697.024780 422.754578,1698.038940 421.644592,1698.822021 
z"/>
<path fill="#F7F9FA" opacity="1.000000" stroke="none" 
	d="
M798.770813,1678.711426 
	C800.374084,1674.138062 801.848938,1669.935547 803.862976,1664.196533 
	C808.068787,1676.396851 811.803833,1687.231689 815.704712,1698.547607 
	C807.427856,1698.547607 799.895813,1698.547607 791.818237,1698.547607 
	C794.164124,1691.856201 796.403259,1685.469360 798.770813,1678.711426 
z"/>
<path fill="#F7F9FA" opacity="1.000000" stroke="none" 
	d="
M1056.978516,1694.169922 
	C1057.416870,1695.802612 1057.756104,1697.040161 1058.182251,1698.595337 
	C1050.335083,1698.595337 1042.904175,1698.595337 1034.609741,1698.595337 
	C1038.521606,1687.323120 1042.343750,1676.309814 1046.568359,1664.136597 
	C1050.255371,1674.734497 1053.567261,1684.254639 1056.978516,1694.169922 
z"/>
</svg>